<svg width="21" height="21" viewBox="0 0 21 21" fill="none" xmlns="http://www.w3.org/2000/svg">
<g clip-path="url(#clip0_163_2952)">
<path d="M20.3848 14.4785H4.88086V2.46094C4.88086 1.10398 3.77688 0 2.41992 0H0.615234C0.275461 0 0 0.275461 0 0.615234C0 0.955008 0.275461 1.23047 0.615234 1.23047H2.41992C3.0984 1.23047 3.65039 1.78246 3.65039 2.46094V7.25977H0.615234C0.275461 7.25977 0 7.53523 0 7.875V9.51562C0 9.72706 0.108609 9.92373 0.287602 10.0364L3.65039 12.1523V16.4883C3.65039 17.1741 4.0265 17.7741 4.5835 18.092C5.68194 16.7329 7.78181 16.8563 8.71459 18.334H15.8948C16.8312 16.8505 18.9445 16.7319 20.0386 18.108C20.6112 17.7942 21 17.1855 21 16.4883V15.0938C21 14.7541 20.7244 14.4785 20.3848 14.4785Z" fill="black"/>
<path d="M6.5625 21C7.28737 21 7.875 20.4124 7.875 19.6875C7.875 18.9626 7.28737 18.375 6.5625 18.375C5.83763 18.375 5.25 18.9626 5.25 19.6875C5.25 20.4124 5.83763 21 6.5625 21Z" fill="black"/>
<path d="M18.0469 21C18.7717 21 19.3594 20.4124 19.3594 19.6875C19.3594 18.9626 18.7717 18.375 18.0469 18.375C17.322 18.375 16.7344 18.9626 16.7344 19.6875C16.7344 20.4124 17.322 21 18.0469 21Z" fill="black"/>
<path d="M10.459 1.88672C10.459 1.54752 10.735 1.27148 11.0742 1.27148H15.1758C15.515 1.27148 15.791 1.54752 15.791 1.88672V2.66602H17.0215V1.88672C17.0215 0.869121 16.1934 0.0410156 15.1758 0.0410156H11.0742C10.0566 0.0410156 9.22852 0.869121 9.22852 1.88672V2.66602H10.459V1.88672Z" fill="black"/>
<path d="M10.459 7.25977H10.5C10.8398 7.25977 11.1152 7.53523 11.1152 7.875C11.1152 8.21477 10.8398 8.49023 10.5 8.49023H10.459V13.084H15.791V8.49023H15.75C15.4102 8.49023 15.1348 8.21477 15.1348 7.875C15.1348 7.53523 15.4102 7.25977 15.75 7.25977H15.791V2.66602H10.459V7.25977Z" fill="black"/>
<path d="M17.0625 7.25977C17.4023 7.25977 17.6777 7.53523 17.6777 7.875C17.6777 8.21477 17.4023 8.49023 17.0625 8.49023H17.0215V13.084H18.7441C19.4237 13.084 19.9746 12.5331 19.9746 11.8535V3.89648C19.9746 3.21694 19.4237 2.66602 18.7441 2.66602H17.0215V7.25977H17.0625Z" fill="black"/>
<path d="M7.50586 13.084H9.22852V8.49023H9.1875C8.84773 8.49023 8.57227 8.21477 8.57227 7.875C8.57227 7.53523 8.84773 7.25977 9.1875 7.25977H9.22852V2.66602H7.50586C6.82627 2.66602 6.27539 3.21694 6.27539 3.89648V11.8535C6.27539 12.5331 6.82627 13.084 7.50586 13.084Z" fill="black"/>
</g>
<defs>
<clipPath id="clip0_163_2952">
<rect width="21" height="21" fill="white"/>
</clipPath>
</defs>
</svg>
