<svg width="17" height="25" viewBox="0 0 17 25" fill="none" xmlns="http://www.w3.org/2000/svg">
<path d="M4.85449 6.5625C6.57324 6.5625 7.97949 5.15625 7.97949 3.4375C7.97949 1.71875 6.57324 0.3125 4.85449 0.3125C3.13574 0.3125 1.72949 1.71875 1.72949 3.4375C1.72949 5.15625 3.13574 6.5625 4.85449 6.5625Z" fill="black"/>
<path d="M6.10449 7.8645H3.60449C1.78158 7.8645 0.323242 9.32283 0.323242 11.1458V18.3333C0.323242 18.7499 0.687826 19.1145 1.10449 19.1145H2.09408V23.9583C2.09408 24.3749 2.45866 24.7395 2.87533 24.7395C3.29199 24.7395 3.65658 24.3749 3.65658 23.9583V19.1145H6.05241V23.9583C6.05241 24.3749 6.41699 24.7395 6.83366 24.7395C7.25032 24.7395 7.61491 24.3749 7.61491 23.9583V19.1145H8.60449C9.02116 19.1145 9.38574 18.7499 9.38574 18.3333V11.1458C9.38574 9.32283 7.87533 7.8645 6.10449 7.8645Z" fill="black"/>
<path d="M15.8965 15.0521H14.8027V13.2812C14.8027 12.8646 14.4382 12.5 14.0215 12.5C13.6048 12.5 13.2402 12.8646 13.2402 13.2812V15.0521H12.1465C11.7298 15.0521 11.3652 15.4167 11.3652 15.8333V23.9583C11.3652 24.375 11.7298 24.7396 12.1465 24.7396H15.8965C16.3132 24.7396 16.6777 24.375 16.6777 23.9583V15.8333C16.6777 15.4167 16.3132 15.0521 15.8965 15.0521Z" fill="black"/>
</svg>
